<svg width="24" height="24" viewBox="0 0 24 24" fill="none" xmlns="http://www.w3.org/2000/svg">
<g opacity="0.4">
<path d="M12 2.25C11.8011 2.25 11.6104 2.32902 11.4697 2.46967C11.3291 2.61032 11.25 2.80109 11.25 3V8.25C11.25 8.44891 11.3291 8.63968 11.4697 8.78033C11.6104 8.92098 11.8011 9 12 9C12.6604 9.00015 13.3023 9.21819 13.8261 9.6203C14.35 10.0224 14.7265 10.5861 14.8973 11.224C15.0681 11.8619 15.0236 12.5384 14.7708 13.1484C14.518 13.7585 14.071 14.2681 13.4991 14.5982C12.9271 14.9284 12.2623 15.0606 11.6075 14.9743C10.9528 14.8881 10.3449 14.5882 9.87793 14.1212C9.411 13.6542 9.1112 13.0462 9.02503 12.3915C8.93885 11.7368 9.07111 11.0719 9.4013 10.5C9.45056 10.4147 9.48253 10.3205 9.49539 10.2228C9.50825 10.1252 9.50174 10.0259 9.47623 9.93075C9.45072 9.83559 9.40672 9.7464 9.34673 9.66825C9.28674 9.59011 9.21194 9.52454 9.12661 9.47531L4.57973 6.85031C4.49442 6.80105 4.40024 6.76907 4.30256 6.75622C4.20489 6.74336 4.10564 6.74987 4.01048 6.77538C3.91533 6.80089 3.82613 6.84489 3.74798 6.90488C3.66984 6.96487 3.60428 7.03967 3.55505 7.125C2.48192 8.98371 2.05208 11.1446 2.33219 13.2725C2.61229 15.4004 3.5867 17.3764 5.10428 18.8941C6.62186 20.4118 8.59782 21.3863 10.7257 21.6665C12.8536 21.9468 15.0145 21.5171 16.8733 20.4441C18.732 19.3711 20.1848 17.7147 21.0063 15.7319C21.8278 13.7491 21.9721 11.5506 21.4168 9.47742C20.8615 7.40424 19.6377 5.57222 17.9351 4.26547C16.2325 2.95872 14.1463 2.25028 12 2.25ZM4.50848 8.54062L7.7813 10.4306C7.59506 10.9329 7.49982 11.4643 7.50005 12C7.50005 12.1434 7.50755 12.2812 7.52067 12.4237L3.87005 13.4062C3.58535 11.7571 3.80798 10.0605 4.50848 8.54062ZM4.25817 14.8509L7.91442 13.8722C8.22011 14.5385 8.68364 15.1203 9.26488 15.5671C9.84611 16.0139 10.5275 16.3122 11.25 16.4363V20.2153C9.69738 20.0714 8.21706 19.4914 6.97991 18.5422C5.74276 17.593 4.79922 16.3134 4.25817 14.8509ZM12.75 20.2153V16.4363C13.7982 16.2586 14.7496 15.7156 15.4356 14.9035C16.1217 14.0914 16.498 13.0626 16.498 11.9995C16.498 10.9364 16.1217 9.90768 15.4356 9.09557C14.7496 8.28347 13.7982 7.74047 12.75 7.56281V3.78375C14.7996 3.97101 16.7052 4.91756 18.0927 6.43761C19.4802 7.95767 20.2494 9.94144 20.2494 11.9995C20.2494 14.0576 19.4802 16.0414 18.0927 17.5614C16.7052 19.0815 14.7996 20.0281 12.75 20.2153Z" fill="#FDFCFB"/>
</g>
</svg>
